<?xml version="1.0" encoding="iso-8859-1"?>
<!-- Generator: Adobe Illustrator 19.0.0, SVG Export Plug-In . SVG Version: 6.00 Build 0)  -->
<svg version="1.1" id="Layer_1" xmlns="http://www.w3.org/2000/svg" xmlns:xlink="http://www.w3.org/1999/xlink" x="0px" y="0px"
	 viewBox="0 0 512 512" style="enable-background:new 0 0 512 512;" xml:space="preserve">
<path style="fill:#FD6144;" d="M511.998,256.206c0-0.069,0.002-0.137,0.002-0.206C512,114.616,397.385,0,256,0
	C114.616,0,0,114.616,0,256c0,108.846,67.937,201.813,163.714,238.845L511.998,256.206z"/>
<path style="fill:#DA4939;" d="M77.913,409.043l85.801,85.801C192.347,505.916,223.461,512,256,512
	c141.316,0,255.886-114.504,255.998-255.795L303.201,47.409h-85.04l-17.813,58.33L256,199.791L77.913,409.043z"/>
<path style="fill:#FF9B54;" d="M368.305,253.243C344.527,216.397,303.114,192,256,192l-33.391,133.565l207.676-27.829
	C421.22,272.105,396.945,253.665,368.305,253.243z"/>
<path style="fill:#FFB354;" d="M143.696,253.243c-28.641,0.422-52.916,18.863-61.981,44.495L256,325.565V192
	C208.886,192,167.473,216.397,143.696,253.243z"/>
<polygon style="fill:#FCE190;" points="200.348,308.87 256,409.043 434.087,409.043 434.087,308.87 "/>
<rect x="77.913" y="308.87" style="fill:#FFEDB3;" width="178.087" height="100.174"/>
<polygon style="fill:#FECA72;" points="256,297.739 232.597,308.87 256,320 456.348,320 456.348,297.739 "/>
<rect x="55.652" y="297.739" style="fill:#FCE190;" width="200.348" height="22.261"/>
<g>
	<rect x="345.043" y="364.522" style="fill:#FECA72;" width="22.261" height="22.261"/>
	<rect x="389.565" y="342.261" style="fill:#FECA72;" width="22.261" height="22.261"/>
</g>
<rect x="200.348" y="235.743" style="fill:#FF9B54;" width="22.261" height="22.261"/>
<polygon style="fill:#9EC77C;" points="311.652,139.13 301.056,199.791 256,199.791 233.739,116.87 "/>
<polygon style="fill:#B8DE6F;" points="256,116.87 256,199.791 210.944,199.791 200.348,139.13 "/>
<polygon style="fill:#80E2E2;" points="311.652,105.739 311.652,139.13 256,139.13 233.739,122.435 256,105.739 "/>
<g>
	<rect x="200.348" y="105.739" style="fill:#CFF2F2;" width="55.652" height="33.391"/>
	<path style="fill:#CFF2F2;" d="M322.783,139.13h-22.261V94.609c0-24.549-19.972-44.522-44.522-44.522l-11.13-11.13L256,27.826
		c36.824,0,66.783,29.959,66.783,66.783V139.13z"/>
</g>
<path style="fill:#FFFFFF;" d="M211.478,139.13h-22.261V94.609c0-36.824,29.959-66.783,66.783-66.783v22.261
	c-24.549,0-44.522,19.972-44.522,44.522V139.13z"/>
<g>
</g>
<g>
</g>
<g>
</g>
<g>
</g>
<g>
</g>
<g>
</g>
<g>
</g>
<g>
</g>
<g>
</g>
<g>
</g>
<g>
</g>
<g>
</g>
<g>
</g>
<g>
</g>
<g>
</g>
</svg>
